name analog
datacolumns 19
datarows 23
range 0.0 0.011
endheader
time	ground_force_vx	ground_force_vy	ground_force_vz	ground_force_px	ground_force_py	ground_force_pz	l_ground_force_vx	l_ground_force_vy	l_ground_force_vz	l_ground_force_px	l_ground_force_py	l_ground_force_pz	ground_torque_x	ground_torque_y	ground_torque_z	l_ground_torque_x	l_ground_torque_y	l_ground_torque_z
0.0	-0.0	-0.0	-0.0	-7.219178676605225	49.90323638916016	-453.0250854492188	8.302563667297363	-50.765018463134766	-328.9008178710937	-0.0	-0.0	-0.0	-0.0	-0.0	-0.0	60700.953125	19913.9921875	-3748.00927734375
0.0005	-0.0	-0.0	-0.0	-6.968109130859375	50.02864074707031	-454.3609313964844	8.480057716369629	-51.04352188110352	-328.7974548339844	-0.0	-0.0	-0.0	-0.0	-0.0	-0.0	60762.69921875	19906.552734375	-3845.692626953125
0.001	-0.0	-0.0	-0.0	-7.153793811798096	50.52000045776367	-453.0248107910156	8.177882194519043	-51.22657775878906	-328.0989990234375	-0.0	-0.0	-0.0	-0.0	-0.0	-0.0	60784.51953125	20204.1875	-3771.247802734375
0.0015	-0.0	-0.0	-0.0	-7.582893371582031	50.26193237304688	-454.5426025390625	8.141988754272461	-51.46532440185547	-329.0426940917969	-0.0	-0.0	-0.0	-0.0	-0.0	-0.0	60661.2265625	20032.3984375	-3943.792236328125
0.002	-0.0	-0.0	-0.0	-7.6721038818359375	50.03810501098633	-454.6850280761719	7.859294414520264	-51.78276443481445	-328.37237548828125	-0.0	-0.0	-0.0	-0.0	-0.0	-0.0	60737.01953125	20244.669921875	-3940.85400390625
0.0025	-0.0	-0.0	-0.0	-7.511063098907471	50.2070426940918	-452.634521484375	7.94807243347168	-51.61354446411133	-327.15509033203125	-0.0	-0.0	-0.0	-0.0	-0.0	-0.0	60468.17578125	20307.375	-3866.956298828125
0.003	-0.0	-0.0	-0.0	-7.787998676300049	49.89472579956055	-452.4566345214844	8.063298225402832	-51.51787185668945	-328.4476013183594	-0.0	-0.0	-0.0	-0.0	-0.0	-0.0	60437.25390625	20389.515625	-3994.311767578125
0.0035	-0.0	-0.0	-0.0	-7.931112289428711	49.62755584716797	-451.5755310058594	7.362995147705078	-51.8184700012207	-328.41094970703125	-0.0	-0.0	-0.0	-0.0	-0.0	-0.0	60606.75	20350.732421875	-3968.299560546875
0.004	-0.0	-0.0	-0.0	-7.707724571228027	49.97542572021485	-450.4100341796875	7.602614402770996	-51.67731857299805	-327.191162109375	-0.0	-0.0	-0.0	-0.0	-0.0	-0.0	60591.17578125	20543.50390625	-3970.767822265625
0.0045000000000000005	-0.0	-0.0	-0.0	-7.877315998077393	49.743595123291016	-452.9888000488281	7.442641258239746	-51.94218063354492	-328.1668701171875	-0.0	-0.0	-0.0	-0.0	-0.0	-0.0	60639.28125	20564.322265625	-4003.667724609375
0.005	-0.0	-0.0	-0.0	-7.904179573059082	49.41440582275391	-451.0133056640625	7.274284362792969	-51.91531753540039	-327.7487487792969	-0.0	-0.0	-0.0	-0.0	-0.0	-0.0	60545.37890625	20333.775390625	-4057.10693359375
0.0055	-0.0	-0.0	-0.0	-8.35892391204834	49.76160430908203	-452.2108154296875	7.114636898040772	-51.650489807128906	-327.2250061035156	-0.0	-0.0	-0.0	-0.0	-0.0	-0.0	60609.52734375	20394.685546875	-4012.704833984375
0.006	-0.0	-0.0	-0.0	-8.091259002685547	49.529632568359375	-450.6238708496094	7.1056108474731445	-51.94186401367188	-328.9352722167969	-0.0	-0.0	-0.0	-0.0	-0.0	-0.0	60771.93359375	20633.001953125	-4060.274658203125
0.006500000000000001	-0.0	-0.0	-0.0	-7.609827041625977	49.78858184814453	-452.1369018554688	7.158883094787598	-51.56266021728516	-327.2940979003906	-0.0	-0.0	-0.0	-0.0	-0.0	-0.0	60413.72265625	20589.076171875	-4122.38232421875
0.007	-0.0	-0.0	-0.0	-8.269607543945312	49.88814926147461	-451.6103820800781	6.981425285339356	-51.63308334350586	-328.06378173828125	-0.0	-0.0	-0.0	-0.0	-0.0	-0.0	60503.4453125	20678.255859375	-4202.56884765625
0.0075	-0.0	-0.0	-0.0	-8.431596755981445	49.76174545288086	-450.5926818847656	7.09686279296875	-51.40322113037109	-328.5184936523437	-0.0	-0.0	-0.0	-0.0	-0.0	-0.0	60722.63671875	20562.837890625	-4196.2763671875
0.008	-0.0	-0.0	-0.0	-8.323617935180664	49.74284744262695	-451.3639526367188	6.7521748542785645	-51.23669052124024	-328.2680053710937	-0.0	-0.0	-0.0	-0.0	-0.0	-0.0	60665.921875	20561.310546875	-4099.0673828125
0.0085	-0.0	-0.0	-0.0	-8.482978820800781	49.63766098022461	-449.3836975097656	6.803897380828857	-51.22657775878906	-328.3081359863281	-0.0	-0.0	-0.0	-0.0	-0.0	-0.0	60573.16015625	20552.017578125	-4158.39208984375
0.009000000000000001	-0.0	-0.0	-0.0	-8.385787963867188	49.62641906738281	-449.5668640136719	6.830730438232422	-51.22657775878906	-327.7156982421875	-0.0	-0.0	-0.0	-0.0	-0.0	-0.0	60368.5703125	20750.759765625	-4181.798828125
0.0095	-0.0	-0.0	-0.0	-8.696105003356934	50.00215911865234	-450.4734191894531	6.71511697769165	-51.00433349609375	-327.1865539550781	-0.0	-0.0	-0.0	-0.0	-0.0	-0.0	60519.875	20534.337890625	-4090.14453125
0.01	-0.0	-0.0	-0.0	-8.599052429199219	49.24665069580078	-449.0296325683594	7.008152008056641	-50.61618423461914	-325.9705505371094	-0.0	-0.0	-0.0	-0.0	-0.0	-0.0	60603.5234375	20569.890625	-4030.53369140625
0.0105	-0.0	-0.0	-0.0	-8.571767807006836	49.89338684082031	-448.2931213378906	7.316842079162598	-50.75811767578125	-325.94012451171875	-0.0	-0.0	-0.0	-0.0	-0.0	-0.0	60427.49609375	20673.142578125	-4092.30712890625
0.011	-0.0	-0.0	-0.0	-8.35853385925293	49.68775177001953	-449.9023132324219	7.362995147705078	-50.72353744506836	-326.39630126953125	-0.0	-0.0	-0.0	-0.0	-0.0	-0.0	60563.69140625	20670.7734375	-4139.98046875
